<svg xmlns="http://www.w3.org/2000/svg" viewBox="0 0 200 200">
  <defs>
    <radialGradient id="g" cx="50%" cy="50%" r="50%">
      <stop offset="0%" stop-color="#f6e3c2"/>
      <stop offset="100%" stop-color="#c9a36a"/>
    </radialGradient>
  </defs>
  <g fill="none" stroke="#6a4b2c" stroke-width="3">
    <circle cx="100" cy="100" r="28" fill="url(#g)"/>
    <path d="M100 10 C120 40, 120 60, 100 72 C80 60, 80 40, 100 10 Z" fill="#e8d6b0"/>
    <path d="M190 100 C160 120, 140 120, 128 100 C140 80, 160 80, 190 100 Z" fill="#e8d6b0"/>
    <path d="M100 190 C80 160, 80 140, 100 128 C120 140, 120 160, 100 190 Z" fill="#e8d6b0"/>
    <path d="M10 100 C40 80, 60 80, 72 100 C60 120, 40 120, 10 100 Z" fill="#e8d6b0"/>
  </g>
</svg>